<?xml version="1.0" encoding="UTF-8" standalone="no"?>
<svg
   xmlns:dc="http://purl.org/dc/elements/1.1/"
   xmlns:cc="http://creativecommons.org/ns#"
   xmlns:rdf="http://www.w3.org/1999/02/22-rdf-syntax-ns#"
   xmlns:svg="http://www.w3.org/2000/svg"
   xmlns="http://www.w3.org/2000/svg"
   id="svg10877"
   version="1.1"
   viewBox="0 0 200 200"
   height="200mm"
   width="200mm">
  <defs
     id="defs10871" />
  <metadata
     id="metadata10874">
    <rdf:RDF>
      <cc:Work
         rdf:about="">
        <dc:format>image/svg+xml</dc:format>
        <dc:type
           rdf:resource="http://purl.org/dc/dcmitype/StillImage" />
        <dc:title></dc:title>
      </cc:Work>
    </rdf:RDF>
  </metadata>
  <g
     transform="translate(0,-97)"
     id="layer1">
    <g
       id="g10771"
       transform="matrix(1.9270184,0,0,1.9270184,-2092.4674,-1135.0953)">
      <path
         style="opacity:1;fill:#ffdd55;fill-opacity:0.88409585;stroke:none;stroke-width:0.61191195;stroke-linecap:round;stroke-linejoin:miter;stroke-miterlimit:4;stroke-dasharray:none;stroke-dashoffset:0;stroke-opacity:1"
         d="m 1168.6165,683.5638 -62.0812,10.6818 a 31.677363,31.677363 0 0 0 0.087,0.72127 l 62.1172,-10.68807 z m 0.3852,2.23841 -62.1936,10.70114 a 31.677363,31.677363 0 0 0 0.022,0.17397 31.677363,31.677363 0 0 0 0.1121,0.5374 l 62.183,-10.69936 z m 0.3853,2.23847 -62.1293,10.69 a 31.677363,31.677363 0 0 0 0.1972,0.7002 l 62.0544,-10.67724 z m -1.0853,-5.99173 a 31.677363,31.677363 0 0 0 -0.2087,-0.69821 l -61.6756,10.61202 a 31.677363,31.677363 0 0 0 0.015,0.73135 z m 1.3698,8.24522 -61.7693,10.62817 a 31.677363,31.677363 0 0 0 0.2096,0.70019 l 61.5748,-10.59475 a 31.677363,31.677363 0 0 0 -0.015,-0.73363 z m -2.116,-10.42148 a 31.677363,31.677363 0 0 0 -0.2858,-0.68413 l -60.8314,10.46669 a 31.677363,31.677363 0 0 0 -0.056,0.74384 z m 2.1277,12.72471 -60.9968,10.49522 a 31.677363,31.677363 0 0 0 0.2867,0.68618 l 60.6533,-10.43619 a 31.677363,31.677363 0 0 0 0.059,-0.74654 z m -3.0209,-14.8735 a 31.677363,31.677363 0 0 0 -0.3603,-0.67435 l -59.6737,10.26755 a 31.677363,31.677363 0 0 0 -0.059,0.74636 z m 2.8342,17.21033 -59.8765,10.30244 a 31.677363,31.677363 0 0 0 0.3594,0.67231 l 59.4282,-10.22532 a 31.677363,31.677363 0 0 0 0.088,-0.74931 z m -3.9628,-19.32088 a 31.677363,31.677363 0 0 0 -0.3647,-0.67134 l -58.1203,10.00027 a 31.677363,31.677363 0 0 0 -0.1375,0.75775 z m 3.5804,21.68919 -58.3663,10.04263 a 31.677363,31.677363 0 0 0 0.4091,0.66581 l 57.8195,-9.94854 a 31.677363,31.677363 0 0 0 0.1371,-0.76005 z m -4.8909,-23.7689 a 31.677363,31.677363 0 0 0 -0.4415,-0.65814 l -56.1307,9.65794 a 31.677363,31.677363 0 0 0 -0.2217,0.77225 z m 4.3298,26.17016 -56.4527,9.71335 a 31.677363,31.677363 0 0 0 0.4434,0.65991 l 55.7866,-9.5988 a 31.677363,31.677363 0 0 0 0.2222,-0.77456 z m -5.837,-28.21336 a 31.677363,31.677363 0 0 0 -0.533,-0.64451 l -53.723,9.24378 a 31.677363,31.677363 0 0 0 -0.3155,0.79035 z m 5.0719,30.6502 -54.1319,9.31401 a 31.677363,31.677363 0 0 0 0.5314,0.6426 l 53.2863,-9.16849 a 31.677363,31.677363 0 0 0 0.3142,-0.78812 z m -6.8108,-32.65568 a 31.677363,31.677363 0 0 0 -0.6326,-0.62514 l -50.8323,8.74619 a 31.677363,31.677363 0 0 0 -0.3807,0.79958 z m 5.808,35.13296 -51.3377,8.83325 a 31.677363,31.677363 0 0 0 0.6328,0.62506 l 50.2859,-8.65221 a 31.677363,31.677363 0 0 0 0.419,-0.8061 z m -7.8255,-37.09051 a 31.677363,31.677363 0 0 0 -0.7492,-0.60524 l -47.3472,8.14675 a 31.677363,31.677363 0 0 0 -0.4538,0.81208 z m 6.5103,39.61922 -47.9467,8.24984 a 31.677363,31.677363 0 0 0 0.7511,0.60697 l 46.6771,-8.03131 a 31.677363,31.677363 0 0 0 0.5185,-0.8255 z m -8.8771,-41.51514 a 31.677363,31.677363 0 0 0 -0.8908,-0.58294 l -43.1058,7.41692 a 31.677363,31.677363 0 0 0 -0.5755,0.8352 z m 7.2021,44.10809 -43.8317,7.54166 a 31.677363,31.677363 0 0 0 0.8885,0.5813 l 42.2927,-7.277 a 31.677363,31.677363 0 0 0 0.6505,-0.84596 z m -10.0375,-45.92484 a 31.677363,31.677363 0 0 0 -1.0606,-0.55163 l -37.8533,6.51319 a 31.677363,31.677363 0 0 0 -0.7753,0.86736 z m 7.9124,48.59572 -38.7804,6.67254 a 31.677363,31.677363 0 0 0 1.0606,0.55163 l 36.8481,-6.34013 a 31.677363,31.677363 0 0 0 0.8717,-0.88404 z m -11.4153,-50.29777 a 31.677363,31.677363 0 0 0 -1.2851,-0.51279 l -31.1197,5.35441 a 31.677363,31.677363 0 0 0 -1.1204,0.9269 z m 8.5329,53.09623 -32.282,5.55446 a 31.677363,31.677363 0 0 0 1.2898,0.51442 l 29.8687,-5.13938 a 31.677363,31.677363 0 0 0 1.1235,-0.9295 z m -13.0728,-54.61808 a 31.677363,31.677363 0 0 0 -1.9433,-0.40106 l -21.5655,3.71053 a 31.677363,31.677363 0 0 0 -1.6038,1.01164 z m 9.0165,57.62066 -23.4096,4.0279 a 31.677363,31.677363 0 0 0 2.0754,0.37687 l 19.4483,-3.34627 a 31.677363,31.677363 0 0 0 1.8859,-1.05857 z M 1137.68,659.66863 a 31.677363,31.677363 0 0 0 -5.0033,0.41816 31.677363,31.677363 0 0 0 -5.0326,1.30863 z m 7.4188,62.50493 -2.8899,0.49721 a 31.677363,31.677363 0 0 0 1.2108,-0.14647 31.677363,31.677363 0 0 0 1.6791,-0.35074 z"
         id="path2877" />
      <path
         id="path2879"
         d="m 1144.1627,669.0541 c -3.3629,-5.66943 3.0188,-8.16782 5.856,-7.65046 2.8373,0.51732 9.0537,1.09122 10.848,-2.43265"
         style="fill:none;stroke:#6338a9;stroke-width:0.53473043;stroke-linecap:butt;stroke-linejoin:miter;stroke-miterlimit:4;stroke-dasharray:none;stroke-opacity:1" />
      <path
         style="fill:none;stroke:#6338a9;stroke-width:0.53473043;stroke-linecap:round;stroke-linejoin:miter;stroke-miterlimit:4;stroke-dasharray:none;stroke-opacity:1"
         d="m 1144.1627,669.0541 c 4.5618,-0.25521 9.3207,1.20587 14.3689,-4.45374"
         id="path2881" />
      <path
         id="path2883"
         d="m 1145.1946,670.53969 c 4.5618,-0.25521 9.2122,0.16775 13.337,-5.93933"
         style="fill:none;stroke:#6338a9;stroke-width:0.53473043;stroke-linecap:round;stroke-linejoin:miter;stroke-miterlimit:4;stroke-dasharray:none;stroke-opacity:1" />
      <path
         style="fill:none;stroke:#6338a9;stroke-width:0.53473043;stroke-linecap:round;stroke-linejoin:miter;stroke-miterlimit:4;stroke-dasharray:none;stroke-opacity:1"
         d="m 1145.1946,670.53969 c 3.2372,0.78639 7.6903,2.07601 9.2605,1.98745 3.6352,-0.20504 7.4212,-3.73451 6.3867,-13.56251"
         id="path2885" />
      <circle
         transform="rotate(14.261827)"
         r="0.92947459"
         cy="368.82181"
         cx="1272.5459"
         id="circle2887"
         style="opacity:1;fill:none;fill-opacity:0.88409585;stroke:#6338a9;stroke-width:0.53473043;stroke-linecap:square;stroke-linejoin:miter;stroke-miterlimit:4;stroke-dasharray:none;stroke-dashoffset:0;stroke-opacity:1" />
      <g
         id="g5217"
         transform="matrix(1.0694608,0,0,1.0694608,-78.055769,-28.35955)">
        <path
           style="fill:none;stroke:#6338a9;stroke-width:0.5;stroke-linecap:butt;stroke-linejoin:round;stroke-miterlimit:4;stroke-dasharray:none;stroke-opacity:1"
           d="m 1125.6845,664.93263 -7.4457,2.86375 1.2608,9.94167 6.2774,3.47137 6.4221,-3.5003 1.186,-9.98018 z"
           id="path2889" />
        <path
           style="fill:none;stroke:#6338a9;stroke-width:0.5;stroke-linecap:round;stroke-linejoin:round;stroke-miterlimit:4;stroke-dasharray:none;stroke-opacity:1"
           d="m 1122.1662,676.87851 3.682,-8.55031 3.6819,8.67304"
           id="path2891" />
        <path
           style="fill:none;stroke:#6338a9;stroke-width:0.5;stroke-linecap:butt;stroke-linejoin:miter;stroke-miterlimit:4;stroke-dasharray:none;stroke-opacity:1"
           d="m 1123.3181,674.17988 h 4.9902"
           id="path2893" />
      </g>
      <ellipse
         transform="rotate(-12.304048)"
         ry="3.2586367"
         rx="8.5973234"
         cy="922.64398"
         cx="996.87378"
         id="ellipse2895"
         style="opacity:1;fill:none;fill-opacity:0.88409585;stroke:#6338a9;stroke-width:0.53473043;stroke-linecap:round;stroke-linejoin:round;stroke-miterlimit:4;stroke-dasharray:none;stroke-dashoffset:0;stroke-opacity:1" />
      <ellipse
         transform="rotate(48.355734)"
         style="opacity:1;fill:none;fill-opacity:0.88409585;stroke:#6338a9;stroke-width:0.53473043;stroke-linecap:round;stroke-linejoin:round;stroke-miterlimit:4;stroke-dasharray:none;stroke-dashoffset:0;stroke-opacity:1"
         id="ellipse2897"
         cx="1292.755"
         cy="-416.90985"
         rx="8.5973234"
         ry="3.2586367" />
      <ellipse
         ry="3.2586367"
         rx="8.5973234"
         cy="-1318.0878"
         cx="328.13696"
         id="ellipse2899"
         style="opacity:1;fill:none;fill-opacity:0.88409585;stroke:#6338a9;stroke-width:0.53473043;stroke-linecap:round;stroke-linejoin:round;stroke-miterlimit:4;stroke-dasharray:none;stroke-dashoffset:0;stroke-opacity:1"
         transform="rotate(106.5018)" />
      <circle
         transform="rotate(-12.304048)"
         r="1.6748824"
         cy="922.67017"
         cx="996.92609"
         id="circle2901"
         style="opacity:1;fill:none;fill-opacity:1;stroke:#6338a9;stroke-width:0.53473043;stroke-linecap:round;stroke-linejoin:round;stroke-miterlimit:4;stroke-dasharray:none;stroke-dashoffset:0;stroke-opacity:1" />
      <g
         id="g5877"
         transform="rotate(-7.5153873,1256.9715,658.68983)">
        <path
           style="fill:none;stroke:#6338a9;stroke-width:0.53473043;stroke-linecap:butt;stroke-linejoin:round;stroke-miterlimit:4;stroke-dasharray:none;stroke-opacity:1"
           d="m 1114.3948,642.78751 8.2875,14.16489 8.2873,-14.16489 -6.4173,0.0753 -1.8703,3.36641 -1.9117,-3.40797 z"
           id="path2903" />
        <path
           style="fill:none;stroke:#6338a9;stroke-width:0.53473043;stroke-linecap:butt;stroke-linejoin:miter;stroke-miterlimit:4;stroke-dasharray:none;stroke-opacity:1"
           d="m 1117.7987,642.90435 4.8833,8.47839 4.8627,-8.43683"
           id="path2905" />
      </g>
      <g
         id="g5202"
         transform="matrix(1.0694608,0,0,1.0694608,-81.914274,-29.212692)">
        <path
           style="fill:none;stroke:#6338a9;stroke-width:0.5;stroke-linecap:butt;stroke-linejoin:miter;stroke-miterlimit:4;stroke-dasharray:none;stroke-opacity:1"
           d="m 1158.9013,700.96628 c 0.069,0.0811 1.0624,0.83966 1.596,1.26771 0.7105,0.53981 0.4565,0.58584 1.2182,0.2701 l 6.8097,-2.823 c 0.8918,-0.33467 0.6647,-0.2593 0.7889,-1.20439 l 0.8621,-6.56312 c 0.148,-1.18035 0.3491,-0.856 -0.5324,-1.53198 l -5.3649,-4.11417 c -1.0572,-0.81699 -0.6449,-0.75692 -1.8347,-0.26367 l -6.347,2.63113 c -0.4381,0.1816 -0.6201,0.45995 -0.6922,1.0093 l -0.9471,7.21018 c -0.1163,0.72248 0.4684,1.0568 0.4684,1.0568 l 1.838,1.32421 c 0.5991,0.36846 1.1448,0.31993 1.5813,0.0508 0.4493,-0.28513 0.678,-0.82895 0.7564,-1.28276 l 0.9853,-7.50026"
           id="path2907" />
        <path
           style="fill:none;stroke:#6338a9;stroke-width:0.5;stroke-linecap:butt;stroke-linejoin:miter;stroke-miterlimit:4;stroke-dasharray:none;stroke-opacity:1"
           d="m 1166.9399,693.35414 c 0.048,-0.96075 -0.6289,-1.67271 -2.4091,-1.91262 -1.7801,-0.23992 -2.5576,0.5409 -2.6497,1.27027"
           id="path2909" />
        <path
           id="path2911"
           d="m 1166.7731,696.48025 c 0.1365,-0.78851 -0.4535,-1.57314 -2.633,-2.06398 -2.1795,-0.49083 -2.3583,-0.97605 -2.259,-1.70448"
           style="fill:none;stroke:#6338a9;stroke-width:0.5;stroke-linecap:butt;stroke-linejoin:miter;stroke-miterlimit:4;stroke-dasharray:none;stroke-opacity:1" />
        <path
           id="path2913"
           d="m 1166.7754,696.46291 c -0.1625,0.94183 -1.0418,1.47089 -2.8236,1.24291 -1.7817,-0.22798 -2.7671,-1.08481 -2.6173,-2.18384"
           style="fill:none;stroke:#6338a9;stroke-width:0.5;stroke-linecap:butt;stroke-linejoin:miter;stroke-miterlimit:4;stroke-dasharray:none;stroke-opacity:1" />
      </g>
      <g
         id="g5888"
         transform="rotate(-7.0501517,1278.2429,703.40412)">
        <path
           style="fill:none;stroke:#6338a9;stroke-width:0.53473043;stroke-linecap:butt;stroke-linejoin:miter;stroke-miterlimit:4;stroke-dasharray:none;stroke-opacity:1"
           d="m 1130.6752,694.03941 v -1.77034 c 0.131,-1.6441 2.7888,-2.13489 4.3999,-2.13489 1.6069,-0.0155 4.1395,0.64642 4.1395,2.30427 v 4.01146 c 0,0.97673 -0.2838,2.53031 -2.7666,2.53031 h -3.4242 c -2.4047,-0.10884 -2.6742,1.65525 -2.6742,2.16405 v 2.63214 c 0,0 -0.9538,-0.029 -1.9287,-0.0146 -2.4859,-0.5087 -2.8311,-8.55295 0.1854,-8.55295 h 6.296 c 0.2454,0 0.3296,-0.0836 0.3296,-0.40682 v -0.30725 c 0,-0.39431 -0.049,-0.49424 -0.5727,-0.48978 z"
           id="path2915" />
        <path
           id="path2917"
           d="m 1138.9246,703.80637 v 1.77036 c -0.131,1.64405 -2.7889,2.13487 -4.3998,2.13487 -1.6071,0.0155 -4.1395,-0.64645 -4.1395,-2.30426 v -4.01147 c 0,-0.97672 0.2837,-2.53034 2.7665,-2.53034 h 3.4241 c 2.4047,0.10888 2.6742,-1.65526 2.6742,-2.16406 v -2.63213 c 0,0 0.9539,0.029 1.9288,0.0145 2.4859,0.5087 2.831,8.55295 -0.1856,8.55295 h -6.296 c -0.2452,0 -0.3296,0.0837 -0.3296,0.40688 v 0.30724 c 0,0.39426 0.049,0.49424 0.5728,0.48973 z"
           style="fill:none;stroke:#6338a9;stroke-width:0.53473043;stroke-linecap:butt;stroke-linejoin:miter;stroke-miterlimit:4;stroke-dasharray:none;stroke-opacity:1" />
        <circle
           style="opacity:1;fill:#6338a9;fill-opacity:1;stroke:none;stroke-width:0.53473043;stroke-linecap:round;stroke-linejoin:round;stroke-miterlimit:4;stroke-dasharray:none;stroke-dashoffset:0;stroke-opacity:1"
           id="circle2919"
           cx="1132.7153"
           cy="692.43286"
           r="0.39052033" />
        <circle
           r="0.39052033"
           cy="705.35632"
           cx="1137.4281"
           id="circle2921"
           style="opacity:1;fill:#6338a9;fill-opacity:1;stroke:none;stroke-width:0.53473043;stroke-linecap:round;stroke-linejoin:round;stroke-miterlimit:4;stroke-dasharray:none;stroke-dashoffset:0;stroke-opacity:1" />
      </g>
      <g
         id="g5207"
         transform="matrix(1.0631647,0.11587594,-0.11587594,1.0631647,6.8953502,-154.02539)">
        <path
           style="fill:none;stroke:#6338a9;stroke-width:0.5;stroke-linecap:round;stroke-linejoin:round;stroke-miterlimit:4;stroke-dasharray:none;stroke-opacity:1"
           d="m 1105.6016,696.69735 6.4076,3.62577 6.8139,-3.65702 -1.8128,-11.0336 z"
           id="path2923" />
        <path
           id="path2925"
           d="m 1105.6016,696.69735 8.5803,-8.35446 -2.0783,-3.72706 z"
           style="fill:none;stroke:#6338a9;stroke-width:0.5;stroke-linecap:round;stroke-linejoin:round;stroke-miterlimit:4;stroke-dasharray:none;stroke-opacity:1" />
        <path
           style="fill:none;stroke:#6338a9;stroke-width:0.5;stroke-linecap:round;stroke-linejoin:round;stroke-miterlimit:4;stroke-dasharray:none;stroke-opacity:1"
           d="m 1105.6016,696.69735 5.5322,-10.49221 -3.0527,-4.15312 z"
           id="path2927" />
      </g>
      <g
         id="g5212"
         transform="matrix(1.0694608,0,0,1.0694608,-78.598887,-26.999203)">
        <g
           id="g5882"
           transform="rotate(8.1138275,1107.4044,662.64676)">
          <path
             id="path2929"
             d="m 1112.2832,656.36394 h -3.8384 l -6.1889,6.18887 1.9731,1.97311 z"
             style="fill:none;stroke:#6338a9;stroke-width:0.5;stroke-linecap:butt;stroke-linejoin:miter;stroke-miterlimit:4;stroke-dasharray:none;stroke-opacity:1" />
          <path
             style="fill:none;stroke:#6338a9;stroke-width:0.5;stroke-linecap:butt;stroke-linejoin:miter;stroke-miterlimit:4;stroke-dasharray:none;stroke-opacity:1"
             d="m 1108.5526,662.03529 -3.3209,3.32087 1.9731,1.97308 5.1197,-5.18819 z"
             id="path2931" />
          <path
             id="path2933"
             d="m 1108.6496,668.80638 -1.4187,-1.45501 1.8284,-1.85508 3.2436,3.41585 z"
             style="fill:none;stroke:#6338a9;stroke-width:0.5;stroke-linecap:butt;stroke-linejoin:miter;stroke-miterlimit:4;stroke-dasharray:none;stroke-opacity:1" />
        </g>
      </g>
      <g
         id="g5222"
         transform="matrix(1.0692543,-0.02101502,0.02101502,1.0692543,-95.296161,-6.7488069)">
        <path
           style="fill:none;stroke:#6338a9;stroke-width:0.5;stroke-linecap:butt;stroke-linejoin:miter;stroke-miterlimit:4;stroke-dasharray:none;stroke-opacity:1"
           d="m 1156.6886,666.42102 h -13.9174 v 14.10803 h 14.2034 l -7.1017,-7.10166 z"
           id="path2935" />
        <path
           style="fill:none;stroke:#6338a9;stroke-width:0.5;stroke-linecap:butt;stroke-linejoin:miter;stroke-miterlimit:4;stroke-dasharray:none;stroke-opacity:1"
           d="m 1142.8188,680.4814 7.7929,-7.7928"
           id="path2937" />
        <path
           id="path2939"
           d="m 1142.7474,673.71336 7.483,-7.38768"
           style="fill:none;stroke:#6338a9;stroke-width:0.5;stroke-linecap:butt;stroke-linejoin:miter;stroke-miterlimit:4;stroke-dasharray:none;stroke-opacity:1" />
      </g>
    </g>
  </g>
</svg>
