<?xml version="1.0" encoding="UTF-8" standalone="no"?>
<svg
   xmlns:dc="http://purl.org/dc/elements/1.1/"
   xmlns:cc="http://creativecommons.org/ns#"
   xmlns:rdf="http://www.w3.org/1999/02/22-rdf-syntax-ns#"
   xmlns:svg="http://www.w3.org/2000/svg"
   xmlns="http://www.w3.org/2000/svg"
   id="svg9978"
   version="1.1"
   viewBox="0 0 30 30"
   height="30mm"
   width="30mm">
  <defs
     id="defs9972" />
  <metadata
     id="metadata9975">
    <rdf:RDF>
      <cc:Work
         rdf:about="">
        <dc:format>image/svg+xml</dc:format>
        <dc:type
           rdf:resource="http://purl.org/dc/dcmitype/StillImage" />
        <dc:title></dc:title>
      </cc:Work>
    </rdf:RDF>
  </metadata>
  <g
     transform="translate(0,-267)"
     id="layer1">
    <g
       id="g10708"
       transform="translate(-1282.2948,-261.00818)">
      <path
         id="path2671"
         d="m 1293.2688,536.60682 c -0.3402,3e-5 -0.6524,0.27384 -0.6524,0.61404 v 3.235 c 0.036,0.74457 -0.3181,0.82879 -0.8587,0.82879 h -1.713 c -0.6804,-0.0308 -0.9178,0.29623 -0.9178,0.71929 v 2.17643 c 0,0.2654 0.037,0.75069 0.7225,0.75069 h 2.007 c 0.6566,-0.0293 0.76,0.34658 0.76,0.75336 v 3.1139 c 0,0.34019 0.3122,0.614 0.6524,0.614 h 3.2355 c 0.6622,0 0.8833,-0.15059 0.8833,-0.87911 v -1.32537 c -0.025,-0.43991 3e-4,-0.97189 0.749,-0.97189 h 2.009 c 0.9207,0.0318 0.8813,0.51603 0.889,0.88816 v 1.52072 c -0.036,0.54787 0.1415,0.76749 0.7293,0.76749 h 3.0824 c 0.3402,0 0.614,-0.27381 0.614,-0.614 v -3.10097 c 0,-0.35774 0.059,-0.76586 -0.7989,-0.76586 h -1.9208 c -0.7796,-0.0336 -0.8532,-0.3773 -0.8748,-0.7368 v -2.0761 c 0,-0.39135 0.1039,-0.83409 0.7911,-0.83409 h 1.8276 c 0.8156,0.0526 0.9758,-0.38818 0.9758,-0.82899 v -3.23484 c 0,-0.34021 -0.2738,-0.61403 -0.614,-0.61403 h -3.3615 c -0.4356,-0.0292 -0.6596,0.17886 -0.6596,0.63319 v 1.55525 c 0,0.50421 0.064,0.95989 -0.7633,0.95989 h -2.1206 c -0.78,0 -0.7631,-0.41774 -0.7631,-0.91804 v -1.52071 c 0.043,-0.6015 -0.3779,-0.70954 -0.7158,-0.70954 z"
         style="opacity:1;fill:none;fill-opacity:1;stroke:#6338a9;stroke-width:0.30710229;stroke-linecap:round;stroke-linejoin:round;stroke-miterlimit:4;stroke-dasharray:none;stroke-dashoffset:0;stroke-opacity:1" />
      <path
         style="opacity:1;fill:#6338a9;fill-opacity:1;stroke:#6338a9;stroke-width:0.30710229;stroke-linecap:round;stroke-linejoin:round;stroke-miterlimit:4;stroke-dasharray:none;stroke-dashoffset:0;stroke-opacity:1"
         d="m 1303.1159,549.41232 c 0.3402,0 2.3444,-0.27381 2.3444,-0.614 v -2.33257 c 0.039,0.81155 -0.3996,2.84587 -2.3444,2.94657 z"
         id="path7178" />
    </g>
  </g>
</svg>
