<?xml version="1.0" encoding="UTF-8" standalone="no"?>
<svg
   xmlns:dc="http://purl.org/dc/elements/1.1/"
   xmlns:cc="http://creativecommons.org/ns#"
   xmlns:rdf="http://www.w3.org/1999/02/22-rdf-syntax-ns#"
   xmlns:svg="http://www.w3.org/2000/svg"
   xmlns="http://www.w3.org/2000/svg"
   id="svg8"
   version="1.1"
   viewBox="0 0 30 30"
   height="30mm"
   width="30mm">
  <defs
     id="defs2" />
  <metadata
     id="metadata5">
    <rdf:RDF>
      <cc:Work
         rdf:about="">
        <dc:format>image/svg+xml</dc:format>
        <dc:type
           rdf:resource="http://purl.org/dc/dcmitype/StillImage" />
        <dc:title></dc:title>
      </cc:Work>
    </rdf:RDF>
  </metadata>
  <g
     transform="translate(0,-267)"
     id="layer1">
    <g
       id="g903">
      <path
         style="color:#000000;font-style:normal;font-variant:normal;font-weight:normal;font-stretch:normal;font-size:medium;line-height:normal;font-family:sans-serif;font-variant-ligatures:normal;font-variant-position:normal;font-variant-caps:normal;font-variant-numeric:normal;font-variant-alternates:normal;font-feature-settings:normal;text-indent:0;text-align:start;text-decoration:none;text-decoration-line:none;text-decoration-style:solid;text-decoration-color:#000000;letter-spacing:normal;word-spacing:normal;text-transform:none;writing-mode:lr-tb;direction:ltr;text-orientation:mixed;dominant-baseline:auto;baseline-shift:baseline;text-anchor:start;white-space:normal;shape-padding:0;clip-rule:nonzero;display:inline;overflow:visible;visibility:visible;opacity:1;isolation:auto;mix-blend-mode:normal;color-interpolation:sRGB;color-interpolation-filters:linearRGB;solid-color:#000000;solid-opacity:1;vector-effect:none;fill:#faec45;fill-opacity:1;fill-rule:nonzero;stroke:none;stroke-width:0.6644969;stroke-linecap:round;stroke-linejoin:miter;stroke-miterlimit:4;stroke-dasharray:none;stroke-dashoffset:0;stroke-opacity:1;color-rendering:auto;image-rendering:auto;shape-rendering:auto;text-rendering:auto;enable-background:accumulate"
         d="m 15.009766,271.74219 a 0.33228167,0.33228167 0 0 0 -0.230469,0.55859 c 2.7173,3.03688 3.45993,8.69576 3.574219,12.32813 v 1.17773 a 0.3330075,0.3330075 0 1 0 0.666015,0 v -1.19336 l -0.002,-0.006 c -0.116313,-3.69669 -0.796887,-9.4583 -3.742187,-12.75 a 0.33228167,0.33228167 0 0 0 -0.265625,-0.11523 z"
         id="path8293" />
      <path
         style="color:#000000;font-style:normal;font-variant:normal;font-weight:normal;font-stretch:normal;font-size:medium;line-height:normal;font-family:sans-serif;font-variant-ligatures:normal;font-variant-position:normal;font-variant-caps:normal;font-variant-numeric:normal;font-variant-alternates:normal;font-feature-settings:normal;text-indent:0;text-align:start;text-decoration:none;text-decoration-line:none;text-decoration-style:solid;text-decoration-color:#000000;letter-spacing:normal;word-spacing:normal;text-transform:none;writing-mode:lr-tb;direction:ltr;text-orientation:mixed;dominant-baseline:auto;baseline-shift:baseline;text-anchor:start;white-space:normal;shape-padding:0;clip-rule:nonzero;display:inline;overflow:visible;visibility:visible;opacity:1;isolation:auto;mix-blend-mode:normal;color-interpolation:sRGB;color-interpolation-filters:linearRGB;solid-color:#000000;solid-opacity:1;vector-effect:none;fill:#faec45;fill-opacity:1;fill-rule:nonzero;stroke:none;stroke-width:0.6644969;stroke-linecap:round;stroke-linejoin:round;stroke-miterlimit:4;stroke-dasharray:none;stroke-dashoffset:0;stroke-opacity:1;color-rendering:auto;image-rendering:auto;shape-rendering:auto;text-rendering:auto;enable-background:accumulate"
         d="m 18.494141,281.33203 a 0.33228167,0.33228167 0 0 0 -0.09766,0.63867 c 1.38161,0.58456 2.007186,1.11727 2.337891,1.88868 0.271525,0.63335 0.279147,1.69186 0.294922,2.89453 -0.963911,-0.68347 -2.620408,-1.66242 -4.890625,-1.69727 a 0.33228167,0.33228167 0 1 0 -0.0098,0.66406 c 2.434094,0.0374 4.4065,1.37118 5.087891,1.92188 a 0.33228167,0.33228167 0 0 0 0.541015,-0.25781 c 0,-1.66358 -0.0016,-2.82947 -0.412109,-3.78711 -0.410546,-0.95765 -1.236463,-1.62352 -2.689453,-2.23828 a 0.33228167,0.33228167 0 0 0 -0.162109,-0.0274 z"
         id="path8295" />
      <path
         style="color:#000000;font-style:normal;font-variant:normal;font-weight:normal;font-stretch:normal;font-size:medium;line-height:normal;font-family:sans-serif;font-variant-ligatures:normal;font-variant-position:normal;font-variant-caps:normal;font-variant-numeric:normal;font-variant-alternates:normal;font-feature-settings:normal;text-indent:0;text-align:start;text-decoration:none;text-decoration-line:none;text-decoration-style:solid;text-decoration-color:#000000;letter-spacing:normal;word-spacing:normal;text-transform:none;writing-mode:lr-tb;direction:ltr;text-orientation:mixed;dominant-baseline:auto;baseline-shift:baseline;text-anchor:start;white-space:normal;shape-padding:0;clip-rule:nonzero;display:inline;overflow:visible;visibility:visible;opacity:1;isolation:auto;mix-blend-mode:normal;color-interpolation:sRGB;color-interpolation-filters:linearRGB;solid-color:#000000;solid-opacity:1;vector-effect:none;fill:#faec45;fill-opacity:1;fill-rule:nonzero;stroke:none;stroke-width:0.6644969;stroke-linecap:round;stroke-linejoin:miter;stroke-miterlimit:4;stroke-dasharray:none;stroke-dashoffset:0;stroke-opacity:1;color-rendering:auto;image-rendering:auto;shape-rendering:auto;text-rendering:auto;enable-background:accumulate"
         d="m 14.980469,271.74219 a 0.33228167,0.33228167 0 0 0 -0.25586,0.11523 c -2.945196,3.2917 -3.625775,9.05332 -3.742187,12.75 l -0.002,0.006 v 1.19336 a 0.3330075,0.3330075 0 1 0 0.666015,0 v -1.17773 c 0.114388,-3.63238 0.857016,-9.29125 3.574219,-12.32813 a 0.33228167,0.33228167 0 0 0 -0.240234,-0.55859 z"
         id="path8297" />
      <path
         style="color:#000000;font-style:normal;font-variant:normal;font-weight:normal;font-stretch:normal;font-size:medium;line-height:normal;font-family:sans-serif;font-variant-ligatures:normal;font-variant-position:normal;font-variant-caps:normal;font-variant-numeric:normal;font-variant-alternates:normal;font-feature-settings:normal;text-indent:0;text-align:start;text-decoration:none;text-decoration-line:none;text-decoration-style:solid;text-decoration-color:#000000;letter-spacing:normal;word-spacing:normal;text-transform:none;writing-mode:lr-tb;direction:ltr;text-orientation:mixed;dominant-baseline:auto;baseline-shift:baseline;text-anchor:start;white-space:normal;shape-padding:0;clip-rule:nonzero;display:inline;overflow:visible;visibility:visible;opacity:1;isolation:auto;mix-blend-mode:normal;color-interpolation:sRGB;color-interpolation-filters:linearRGB;solid-color:#000000;solid-opacity:1;vector-effect:none;fill:#faec45;fill-opacity:1;fill-rule:nonzero;stroke:none;stroke-width:0.6644969;stroke-linecap:round;stroke-linejoin:round;stroke-miterlimit:4;stroke-dasharray:none;stroke-dashoffset:0;stroke-opacity:1;color-rendering:auto;image-rendering:auto;shape-rendering:auto;text-rendering:auto;enable-background:accumulate"
         d="m 11.462891,281.33203 a 0.33228167,0.33228167 0 0 0 -0.119141,0.0274 c -1.4530901,0.61475 -2.2789053,1.28063 -2.6894531,2.23828 -0.4105478,0.95764 -0.4121094,2.12354 -0.4121094,3.78711 a 0.33228167,0.33228167 0 0 0 0.5410156,0.25781 c 0.681378,-0.55069 2.6540069,-1.88451 5.0878909,-1.92188 a 0.33228167,0.33228167 0 1 0 -0.0098,-0.66406 c -2.270053,0.0349 -3.9266943,1.01379 -4.8906249,1.69727 0.015769,-1.20268 0.0234,-2.26118 0.2949219,-2.89453 0.3307021,-0.7714 0.956181,-1.30412 2.337891,-1.88868 a 0.33228167,0.33228167 0 0 0 -0.140625,-0.63867 z"
         id="path8299" />
      <path
         style="color:#000000;font-style:normal;font-variant:normal;font-weight:normal;font-stretch:normal;font-size:medium;line-height:normal;font-family:sans-serif;font-variant-ligatures:normal;font-variant-position:normal;font-variant-caps:normal;font-variant-numeric:normal;font-variant-alternates:normal;font-feature-settings:normal;text-indent:0;text-align:start;text-decoration:none;text-decoration-line:none;text-decoration-style:solid;text-decoration-color:#000000;letter-spacing:normal;word-spacing:normal;text-transform:none;writing-mode:lr-tb;direction:ltr;text-orientation:mixed;dominant-baseline:auto;baseline-shift:baseline;text-anchor:start;white-space:normal;shape-padding:0;clip-rule:nonzero;display:inline;overflow:visible;visibility:visible;opacity:1;isolation:auto;mix-blend-mode:normal;color-interpolation:sRGB;color-interpolation-filters:linearRGB;solid-color:#000000;solid-opacity:1;vector-effect:none;fill:#faec45;fill-opacity:1;fill-rule:nonzero;stroke:none;stroke-width:0.6644969;stroke-linecap:round;stroke-linejoin:miter;stroke-miterlimit:4;stroke-dasharray:none;stroke-dashoffset:0;stroke-opacity:1;color-rendering:auto;image-rendering:auto;shape-rendering:auto;text-rendering:auto;enable-background:accumulate"
         d="m 12.287109,287.50781 a 0.33228167,0.33228167 0 0 0 -0.326171,0.33594 V 291 a 0.33228167,0.33228167 0 1 0 0.664062,0 v -3.15625 a 0.33228167,0.33228167 0 0 0 -0.337891,-0.33594 z"
         id="path8301" />
      <path
         style="color:#000000;font-style:normal;font-variant:normal;font-weight:normal;font-stretch:normal;font-size:medium;line-height:normal;font-family:sans-serif;font-variant-ligatures:normal;font-variant-position:normal;font-variant-caps:normal;font-variant-numeric:normal;font-variant-alternates:normal;font-feature-settings:normal;text-indent:0;text-align:start;text-decoration:none;text-decoration-line:none;text-decoration-style:solid;text-decoration-color:#000000;letter-spacing:normal;word-spacing:normal;text-transform:none;writing-mode:lr-tb;direction:ltr;text-orientation:mixed;dominant-baseline:auto;baseline-shift:baseline;text-anchor:start;white-space:normal;shape-padding:0;clip-rule:nonzero;display:inline;overflow:visible;visibility:visible;opacity:1;isolation:auto;mix-blend-mode:normal;color-interpolation:sRGB;color-interpolation-filters:linearRGB;solid-color:#000000;solid-opacity:1;vector-effect:none;fill:#faec45;fill-opacity:1;fill-rule:nonzero;stroke:none;stroke-width:0.6644969;stroke-linecap:round;stroke-linejoin:miter;stroke-miterlimit:4;stroke-dasharray:none;stroke-dashoffset:0;stroke-opacity:1;color-rendering:auto;image-rendering:auto;shape-rendering:auto;text-rendering:auto;enable-background:accumulate"
         d="m 14.259766,286.57422 a 0.33228167,0.33228167 0 0 0 -0.328125,0.33594 v 2.73828 l 1.105468,-0.23633 v 2.50781 a 0.33228167,0.33228167 0 1 0 0.664063,0 v -3.33008 l -1.105469,0.23828 v -1.91796 a 0.33228167,0.33228167 0 0 0 -0.335937,-0.33594 z"
         id="path8303" />
      <path
         style="color:#000000;font-style:normal;font-variant:normal;font-weight:normal;font-stretch:normal;font-size:medium;line-height:normal;font-family:sans-serif;font-variant-ligatures:normal;font-variant-position:normal;font-variant-caps:normal;font-variant-numeric:normal;font-variant-alternates:normal;font-feature-settings:normal;text-indent:0;text-align:start;text-decoration:none;text-decoration-line:none;text-decoration-style:solid;text-decoration-color:#000000;letter-spacing:normal;word-spacing:normal;text-transform:none;writing-mode:lr-tb;direction:ltr;text-orientation:mixed;dominant-baseline:auto;baseline-shift:baseline;text-anchor:start;white-space:normal;shape-padding:0;clip-rule:nonzero;display:inline;overflow:visible;visibility:visible;opacity:1;isolation:auto;mix-blend-mode:normal;color-interpolation:sRGB;color-interpolation-filters:linearRGB;solid-color:#000000;solid-opacity:1;vector-effect:none;fill:#faec45;fill-opacity:1;fill-rule:nonzero;stroke:none;stroke-width:0.6644969;stroke-linecap:round;stroke-linejoin:miter;stroke-miterlimit:4;stroke-dasharray:none;stroke-dashoffset:0;stroke-opacity:1;color-rendering:auto;image-rendering:auto;shape-rendering:auto;text-rendering:auto;enable-background:accumulate"
         d="m 17.556641,287.50781 a 0.33228167,0.33228167 0 0 0 -0.328125,0.33594 V 291 a 0.33228167,0.33228167 0 1 0 0.664062,0 v -3.15625 a 0.33228167,0.33228167 0 0 0 -0.335937,-0.33594 z"
         id="path8305" />
      <path
         style="color:#000000;font-style:normal;font-variant:normal;font-weight:normal;font-stretch:normal;font-size:medium;line-height:normal;font-family:sans-serif;font-variant-ligatures:normal;font-variant-position:normal;font-variant-caps:normal;font-variant-numeric:normal;font-variant-alternates:normal;font-feature-settings:normal;text-indent:0;text-align:start;text-decoration:none;text-decoration-line:none;text-decoration-style:solid;text-decoration-color:#000000;letter-spacing:normal;word-spacing:normal;text-transform:none;writing-mode:lr-tb;direction:ltr;text-orientation:mixed;dominant-baseline:auto;baseline-shift:baseline;text-anchor:start;white-space:normal;shape-padding:0;clip-rule:nonzero;display:inline;overflow:visible;visibility:visible;opacity:1;isolation:auto;mix-blend-mode:normal;color-interpolation:sRGB;color-interpolation-filters:linearRGB;solid-color:#000000;solid-opacity:1;vector-effect:none;fill:#faec45;fill-opacity:1;fill-rule:nonzero;stroke:none;stroke-width:0.6644969;stroke-linecap:round;stroke-linejoin:round;stroke-miterlimit:4;stroke-dasharray:none;stroke-dashoffset:0;stroke-opacity:1;color-rendering:auto;image-rendering:auto;shape-rendering:auto;text-rendering:auto;enable-background:accumulate"
         d="m 15.017578,277.62305 c -0.804099,0 -1.46289,0.65879 -1.46289,1.46289 0,0.8041 0.658791,1.46289 1.46289,1.46289 0.804099,0 1.462891,-0.65879 1.462891,-1.46289 0,-0.8041 -0.658792,-1.46289 -1.462891,-1.46289 z m 0,0.66406 c 0.444978,0 0.798828,0.35385 0.798828,0.79883 0,0.44498 -0.35385,0.79883 -0.798828,0.79883 -0.444978,0 -0.798828,-0.35385 -0.798828,-0.79883 0,-0.44498 0.35385,-0.79883 0.798828,-0.79883 z"
         id="circle8307" />
      <path
         style="fill:#faec45;fill-opacity:1;stroke:none;stroke-width:0.37442061;stroke-linecap:round;stroke-linejoin:round;stroke-miterlimit:4;stroke-dasharray:none;stroke-opacity:1"
         d="m 21.305351,286.04091 v 1.06497 l -1.356301,-0.81573 c 0.758701,0.0356 0.446301,-0.73796 1.160501,-0.90518 0.1285,-0.0311 0.053,-0.32162 0.084,-0.30523 z"
         id="path8309" />
    </g>
  </g>
</svg>
